<svg width="128" height="128" viewBox="0 0 128 128" fill="none" xmlns="http://www.w3.org/2000/svg">
<rect width="128" height="128" rx="64" fill="#F3F4F5"/>
<path d="M82.875 73.375L79.125 69.5C80.7917 69.0417 82.1458 68.1562 83.1875 66.8438C84.2292 65.5312 84.75 64 84.75 62.25C84.75 60.1667 84.0208 58.3958 82.5625 56.9375C81.1042 55.4792 79.3333 54.75 77.25 54.75H67.25V49.75H77.25C80.7083 49.75 83.6562 50.9688 86.0938 53.4062C88.5312 55.8438 89.75 58.7917 89.75 62.25C89.75 64.625 89.1354 66.8125 87.9062 68.8125C86.6771 70.8125 85 72.3333 82.875 73.375ZM74.375 64.75L69.375 59.75H74.75V64.75H74.375ZM84.25 88.75L38.25 42.75L41.75 39.25L87.75 85.25L84.25 88.75ZM62.25 74.75H52.25C48.7917 74.75 45.8438 73.5312 43.4062 71.0938C40.9688 68.6562 39.75 65.7083 39.75 62.25C39.75 59.375 40.625 56.8125 42.375 54.5625C44.125 52.3125 46.375 50.8333 49.125 50.125L53.75 54.75H52.25C50.1667 54.75 48.3958 55.4792 46.9375 56.9375C45.4792 58.3958 44.75 60.1667 44.75 62.25C44.75 64.3333 45.4792 66.1042 46.9375 67.5625C48.3958 69.0208 50.1667 69.75 52.25 69.75H62.25V74.75ZM54.75 64.75V59.75H58.8125L63.75 64.75H54.75Z" fill="#C3C6D7"/>
</svg>
